<?xml version="1.0" encoding="us-ascii" standalone="no"?><svg xmlns="http://www.w3.org/2000/svg" xmlns:xlink="http://www.w3.org/1999/xlink" contentStyleType="text/css" height="700px" preserveAspectRatio="none" style="width:1806px;height:700px;background:#FFFFFF;" version="1.1" viewBox="0 0 1806 700" width="1806px" zoomAndPan="magnify"><defs/><g><!--cluster external--><g id="cluster_external"><path d="M1061,15 L1120,15 A3.75,3.75 0 0 1 1122.5,17.5 L1129.5,38.6094 L1797,38.6094 A2.5,2.5 0 0 1 1799.5,41.1094 L1799.5,662.5 A2.5,2.5 0 0 1 1797,665 L1061,665 A2.5,2.5 0 0 1 1058.5,662.5 L1058.5,17.5 A2.5,2.5 0 0 1 1061,15 " fill="none" style="stroke:#000000;stroke-width:1.5;"/><line style="stroke:#000000;stroke-width:1.5;" x1="1058.5" x2="1129.5" y1="38.6094" y2="38.6094"/><text fill="#000000" font-family="sans-serif" font-size="14" font-weight="bold" lengthAdjust="spacing" textLength="58" x="1062.5" y="31.5332">external</text></g><!--class PetAuditRecord--><g id="elem_PetAuditRecord"><rect codeLine="50" fill="#F1F1F1" height="188.875" id="PetAuditRecord" rx="2.5" ry="2.5" style="stroke:#181818;stroke-width:0.5;" width="395" x="1388" y="273"/><ellipse cx="1531.75" cy="289" fill="#ADD1B2" rx="11" ry="11" style="stroke:#181818;stroke-width:1.0;"/><path d="M1534.5156,284.875 Q1534.6719,284.6563 1534.8594,284.5469 Q1535.0469,284.4375 1535.2656,284.4375 Q1535.6406,284.4375 1535.875,284.7031 Q1536.1094,284.9531 1536.1094,285.5625 L1536.1094,287.0156 Q1536.1094,287.625 1535.875,287.8906 Q1535.6406,288.1563 1535.2656,288.1563 Q1534.9219,288.1563 1534.7188,287.9531 Q1534.5156,287.7656 1534.4063,287.25 Q1534.3594,286.8906 1534.1719,286.7031 Q1533.8438,286.3281 1533.2344,286.1094 Q1532.625,285.8906 1532,285.8906 Q1531.2344,285.8906 1530.5938,286.2188 Q1529.9688,286.5469 1529.4688,287.2969 Q1528.9844,288.0469 1528.9844,289.0781 L1528.9844,290.1719 Q1528.9844,291.4063 1529.875,292.2344 Q1530.7656,293.0469 1532.3594,293.0469 Q1533.2969,293.0469 1533.9531,292.7969 Q1534.3438,292.6406 1534.7656,292.2031 Q1535.0313,291.9375 1535.1719,291.8594 Q1535.3281,291.7813 1535.5313,291.7813 Q1535.8594,291.7813 1536.1094,292.0469 Q1536.375,292.2969 1536.375,292.6406 Q1536.375,292.9844 1536.0313,293.3906 Q1535.5313,293.9688 1534.7344,294.2969 Q1533.6563,294.75 1532.3594,294.75 Q1530.8438,294.75 1529.6406,294.125 Q1528.6563,293.625 1527.9688,292.5625 Q1527.2813,291.4844 1527.2813,290.2031 L1527.2813,289.0469 Q1527.2813,287.7188 1527.8906,286.5781 Q1528.5156,285.4219 1529.6094,284.8125 Q1530.7031,284.1875 1531.9375,284.1875 Q1532.6719,284.1875 1533.3125,284.3594 Q1533.9688,284.5156 1534.5156,284.875 Z " fill="#000000"/><text fill="#000000" font-family="sans-serif" font-size="14" lengthAdjust="spacing" textLength="99" x="1552.25" y="294.7285">PetAuditRecord</text><line style="stroke:#181818;stroke-width:0.5;" x1="1389" x2="1782" y1="305" y2="305"/><rect fill="none" height="6" style="stroke:#C82930;stroke-width:1.0;" width="6" x="1396" y="316.3047"/><text fill="#000000" font-family="sans-serif" font-size="14" lengthAdjust="spacing" textLength="97" x="1408" y="323.5332">String petName</text><rect fill="none" height="6" style="stroke:#C82930;stroke-width:1.0;" width="6" x="1396" y="333.9141"/><text fill="#000000" font-family="sans-serif" font-size="14" lengthAdjust="spacing" textLength="155" x="1408" y="341.1426">ActivityType activityType</text><rect fill="none" height="6" style="stroke:#C82930;stroke-width:1.0;" width="6" x="1396" y="351.5234"/><text fill="#000000" font-family="sans-serif" font-size="14" lengthAdjust="spacing" textLength="163" x="1408" y="358.752">LocalDateTime timestamp</text><line style="stroke:#181818;stroke-width:0.5;" x1="1389" x2="1782" y1="365.8281" y2="365.8281"/><ellipse cx="1399" cy="380.1328" fill="#84BE84" rx="3" ry="3" style="stroke:#038048;stroke-width:1.0;"/><text fill="#000000" font-family="sans-serif" font-size="14" lengthAdjust="spacing" textLength="369" x="1408" y="384.3613">PetAuditRecord(String petName, ActivityType activityType)</text><ellipse cx="1399" cy="397.7422" fill="#84BE84" rx="3" ry="3" style="stroke:#038048;stroke-width:1.0;"/><text fill="#000000" font-family="sans-serif" font-size="14" lengthAdjust="spacing" textLength="128" x="1408" y="401.9707">String getPetName()</text><ellipse cx="1399" cy="415.3516" fill="#84BE84" rx="3" ry="3" style="stroke:#038048;stroke-width:1.0;"/><text fill="#000000" font-family="sans-serif" font-size="14" lengthAdjust="spacing" textLength="186" x="1408" y="419.5801">ActivityType getActivityType()</text><ellipse cx="1399" cy="432.9609" fill="#84BE84" rx="3" ry="3" style="stroke:#038048;stroke-width:1.0;"/><text fill="#000000" font-family="sans-serif" font-size="14" lengthAdjust="spacing" textLength="198" x="1408" y="437.1895">LocalDateTime getTimestamp()</text><ellipse cx="1399" cy="450.5703" fill="#84BE84" rx="3" ry="3" style="stroke:#038048;stroke-width:1.0;"/><text fill="#000000" font-family="sans-serif" font-size="14" lengthAdjust="spacing" textLength="156" x="1408" y="454.7988">String toParsableString()</text></g><!--class ActivityType--><g id="elem_ActivityType"><rect codeLine="61" fill="#F1F1F1" height="83.2188" id="ActivityType" rx="2.5" ry="2.5" style="stroke:#181818;stroke-width:0.5;" width="108" x="1531.5" y="566"/><ellipse cx="1546.5" cy="582" fill="#EB937F" rx="11" ry="11" style="stroke:#181818;stroke-width:1.0;"/><path d="M1545.3594,582.7969 L1545.3594,585.2969 L1549.6875,585.2969 L1549.6875,584.375 Q1549.6875,583.7656 1549.9219,583.5 Q1550.1719,583.2344 1550.5469,583.2344 Q1550.9219,583.2344 1551.1563,583.5 Q1551.3906,583.7656 1551.3906,584.375 L1551.3906,587 L1543.3906,587 Q1542.7656,587 1542.5,586.7656 Q1542.25,586.5313 1542.25,586.1406 Q1542.25,585.7656 1542.5156,585.5313 Q1542.7813,585.2969 1543.3906,585.2969 L1543.6563,585.2969 L1543.6563,578.6406 L1543.3906,578.6406 Q1542.7656,578.6406 1542.5,578.4063 Q1542.25,578.1719 1542.25,577.7813 Q1542.25,577.4063 1542.5,577.1719 Q1542.7656,576.9375 1543.3906,576.9375 L1551.0156,576.9375 L1551.0156,579.5313 Q1551.0156,580.1406 1550.7813,580.4063 Q1550.5625,580.6563 1550.1719,580.6563 Q1549.7969,580.6563 1549.5625,580.4063 Q1549.3281,580.1406 1549.3281,579.5313 L1549.3281,578.6406 L1545.3594,578.6406 L1545.3594,581.0938 L1546.8438,581.0938 Q1546.8438,580.4375 1546.9688,580.25 Q1547.2344,579.8438 1547.7031,579.8438 Q1548.0781,579.8438 1548.3125,580.1094 Q1548.5469,580.3594 1548.5469,580.9688 L1548.5469,582.9375 Q1548.5469,583.4844 1548.4219,583.6719 Q1548.1563,584.0625 1547.7031,584.0625 Q1547.2344,584.0625 1546.9688,583.6563 Q1546.8438,583.4688 1546.8438,582.7969 L1545.3594,582.7969 Z " fill="#000000"/><text fill="#000000" font-family="sans-serif" font-size="14" lengthAdjust="spacing" textLength="76" x="1560.5" y="587.7285">ActivityType</text><line style="stroke:#181818;stroke-width:0.5;" x1="1532.5" x2="1638.5" y1="598" y2="598"/><text fill="#000000" font-family="sans-serif" font-size="14" lengthAdjust="spacing" textLength="37" x="1537.5" y="616.5332">FEED</text><text fill="#000000" font-family="sans-serif" font-size="14" lengthAdjust="spacing" textLength="67" x="1537.5" y="634.1426">EXERCISE</text><line style="stroke:#181818;stroke-width:0.5;" x1="1532.5" x2="1638.5" y1="641.2188" y2="641.2188"/></g><!--class PetAuditSystem--><g id="elem_PetAuditSystem"><rect codeLine="66" fill="#F1F1F1" height="100.8281" id="PetAuditSystem" rx="2.5" ry="2.5" style="stroke:#181818;stroke-width:0.5;" width="274" x="1509.5" y="59.5"/><ellipse cx="1592.75" cy="75.5" fill="#ADD1B2" rx="11" ry="11" style="stroke:#181818;stroke-width:1.0;"/><path d="M1595.5156,71.375 Q1595.6719,71.1563 1595.8594,71.0469 Q1596.0469,70.9375 1596.2656,70.9375 Q1596.6406,70.9375 1596.875,71.2031 Q1597.1094,71.4531 1597.1094,72.0625 L1597.1094,73.5156 Q1597.1094,74.125 1596.875,74.3906 Q1596.6406,74.6563 1596.2656,74.6563 Q1595.9219,74.6563 1595.7188,74.4531 Q1595.5156,74.2656 1595.4063,73.75 Q1595.3594,73.3906 1595.1719,73.2031 Q1594.8438,72.8281 1594.2344,72.6094 Q1593.625,72.3906 1593,72.3906 Q1592.2344,72.3906 1591.5938,72.7188 Q1590.9688,73.0469 1590.4688,73.7969 Q1589.9844,74.5469 1589.9844,75.5781 L1589.9844,76.6719 Q1589.9844,77.9063 1590.875,78.7344 Q1591.7656,79.5469 1593.3594,79.5469 Q1594.2969,79.5469 1594.9531,79.2969 Q1595.3438,79.1406 1595.7656,78.7031 Q1596.0313,78.4375 1596.1719,78.3594 Q1596.3281,78.2813 1596.5313,78.2813 Q1596.8594,78.2813 1597.1094,78.5469 Q1597.375,78.7969 1597.375,79.1406 Q1597.375,79.4844 1597.0313,79.8906 Q1596.5313,80.4688 1595.7344,80.7969 Q1594.6563,81.25 1593.3594,81.25 Q1591.8438,81.25 1590.6406,80.625 Q1589.6563,80.125 1588.9688,79.0625 Q1588.2813,77.9844 1588.2813,76.7031 L1588.2813,75.5469 Q1588.2813,74.2188 1588.8906,73.0781 Q1589.5156,71.9219 1590.6094,71.3125 Q1591.7031,70.6875 1592.9375,70.6875 Q1593.6719,70.6875 1594.3125,70.8594 Q1594.9688,71.0156 1595.5156,71.375 Z " fill="#000000"/><text fill="#000000" font-family="sans-serif" font-size="14" lengthAdjust="spacing" textLength="99" x="1613.25" y="81.2285">PetAuditSystem</text><line style="stroke:#181818;stroke-width:0.5;" x1="1510.5" x2="1782.5" y1="91.5" y2="91.5"/><rect fill="none" height="6" style="stroke:#C82930;stroke-width:1.0;" width="6" x="1517.5" y="102.8047"/><text fill="#000000" font-family="sans-serif" font-size="14" lengthAdjust="spacing" textLength="94" x="1529.5" y="110.0332">String filename</text><line style="stroke:#181818;stroke-width:0.5;" x1="1510.5" x2="1782.5" y1="117.1094" y2="117.1094"/><ellipse cx="1520.5" cy="131.4141" fill="#84BE84" rx="3" ry="3" style="stroke:#038048;stroke-width:1.0;"/><text fill="#000000" font-family="sans-serif" font-size="14" lengthAdjust="spacing" textLength="203" x="1529.5" y="135.6426">PetAuditSystem(String filename)</text><ellipse cx="1520.5" cy="149.0234" fill="#84BE84" rx="3" ry="3" style="stroke:#038048;stroke-width:1.0;"/><text fill="#000000" font-family="sans-serif" font-size="14" lengthAdjust="spacing" textLength="248" x="1529.5" y="153.252">void storeAudit(PetAuditRecord record)</text></g><!--class ExternalPetAuditService--><g id="elem_ExternalPetAuditService"><rect codeLine="72" fill="#F1F1F1" height="118.4375" id="ExternalPetAuditService" rx="2.5" ry="2.5" style="stroke:#181818;stroke-width:0.5;" width="400" x="1074.5" y="51"/><ellipse cx="1194.75" cy="67" fill="#ADD1B2" rx="11" ry="11" style="stroke:#181818;stroke-width:1.0;"/><path d="M1197.5156,62.875 Q1197.6719,62.6563 1197.8594,62.5469 Q1198.0469,62.4375 1198.2656,62.4375 Q1198.6406,62.4375 1198.875,62.7031 Q1199.1094,62.9531 1199.1094,63.5625 L1199.1094,65.0156 Q1199.1094,65.625 1198.875,65.8906 Q1198.6406,66.1563 1198.2656,66.1563 Q1197.9219,66.1563 1197.7188,65.9531 Q1197.5156,65.7656 1197.4063,65.25 Q1197.3594,64.8906 1197.1719,64.7031 Q1196.8438,64.3281 1196.2344,64.1094 Q1195.625,63.8906 1195,63.8906 Q1194.2344,63.8906 1193.5938,64.2188 Q1192.9688,64.5469 1192.4688,65.2969 Q1191.9844,66.0469 1191.9844,67.0781 L1191.9844,68.1719 Q1191.9844,69.4063 1192.875,70.2344 Q1193.7656,71.0469 1195.3594,71.0469 Q1196.2969,71.0469 1196.9531,70.7969 Q1197.3438,70.6406 1197.7656,70.2031 Q1198.0313,69.9375 1198.1719,69.8594 Q1198.3281,69.7813 1198.5313,69.7813 Q1198.8594,69.7813 1199.1094,70.0469 Q1199.375,70.2969 1199.375,70.6406 Q1199.375,70.9844 1199.0313,71.3906 Q1198.5313,71.9688 1197.7344,72.2969 Q1196.6563,72.75 1195.3594,72.75 Q1193.8438,72.75 1192.6406,72.125 Q1191.6563,71.625 1190.9688,70.5625 Q1190.2813,69.4844 1190.2813,68.2031 L1190.2813,67.0469 Q1190.2813,65.7188 1190.8906,64.5781 Q1191.5156,63.4219 1192.6094,62.8125 Q1193.7031,62.1875 1194.9375,62.1875 Q1195.6719,62.1875 1196.3125,62.3594 Q1196.9688,62.5156 1197.5156,62.875 Z " fill="#000000"/><text fill="#000000" font-family="sans-serif" font-size="14" lengthAdjust="spacing" textLength="151" x="1215.25" y="72.7285">ExternalPetAuditService</text><line style="stroke:#181818;stroke-width:0.5;" x1="1075.5" x2="1473.5" y1="83" y2="83"/><rect fill="none" height="6" style="stroke:#C82930;stroke-width:1.0;" width="6" x="1082.5" y="94.3047"/><text fill="#000000" font-family="sans-serif" font-size="14" lengthAdjust="spacing" textLength="104" x="1094.5" y="101.5332">String username</text><rect fill="none" height="6" style="stroke:#C82930;stroke-width:1.0;" width="6" x="1082.5" y="111.9141"/><text fill="#000000" font-family="sans-serif" font-size="14" lengthAdjust="spacing" textLength="101" x="1094.5" y="119.1426">String password</text><line style="stroke:#181818;stroke-width:0.5;" x1="1075.5" x2="1473.5" y1="126.2188" y2="126.2188"/><ellipse cx="1085.5" cy="140.5234" fill="#84BE84" rx="3" ry="3" style="stroke:#038048;stroke-width:1.0;"/><text fill="#000000" font-family="sans-serif" font-size="14" lengthAdjust="spacing" textLength="374" x="1094.5" y="144.752">ExternalPetAuditService(String username, String password)</text><ellipse cx="1085.5" cy="158.1328" fill="#84BE84" rx="3" ry="3" style="stroke:#038048;stroke-width:1.0;"/><text fill="#000000" font-family="sans-serif" font-size="14" lengthAdjust="spacing" textLength="349" x="1094.5" y="162.3613">void recordFeeding(int petId, LocalDateTime dateTime)</text></g><!--class Pet--><g id="elem_Pet"><rect codeLine="2" fill="#F1F1F1" height="171.2656" id="Pet" rx="2.5" ry="2.5" style="stroke:#181818;stroke-width:0.5;" width="164" x="520.5" y="522"/><ellipse cx="587.75" cy="538" fill="#A9DCDF" rx="11" ry="11" style="stroke:#181818;stroke-width:1.0;"/><path d="M589.9375,539.7656 L585.7969,539.7656 L585.375,540.7969 L585.7969,540.7969 Q586.4063,540.7969 586.6719,541.0313 Q586.9375,541.2656 586.9375,541.6563 Q586.9375,542.0313 586.6719,542.2656 Q586.4063,542.5 585.7969,542.5 L583.5,542.5 Q582.8906,542.5 582.6406,542.2656 Q582.375,542.0313 582.375,541.6406 Q582.375,541.2656 582.6563,541.0313 Q582.9219,540.7813 583.5469,540.7969 L586.2188,534.1406 L585.1094,534.1406 Q584.5,534.1406 584.2344,533.9063 Q583.9688,533.6719 583.9688,533.2813 Q583.9688,532.9063 584.2344,532.6719 Q584.5,532.4375 585.1094,532.4375 L588.7813,532.4375 L592.1719,540.7969 Q592.7656,540.7969 592.9531,540.9375 Q593.3438,541.2031 593.3438,541.6563 Q593.3438,542.0313 593.0781,542.2656 Q592.8281,542.5 592.2188,542.5 L589.9219,542.5 Q589.3125,542.5 589.0469,542.2656 Q588.7813,542.0313 588.7813,541.6406 Q588.7813,541.2656 589.0469,541.0313 Q589.3125,540.7969 589.9219,540.7969 L590.3438,540.7969 L589.9375,539.7656 Z M589.2188,538.0625 L587.8594,534.6875 L586.4844,538.0625 L589.2188,538.0625 Z " fill="#000000"/><text fill="#000000" font-family="sans-serif" font-size="14" font-style="italic" lengthAdjust="spacing" textLength="21" x="608.25" y="543.7285">Pet</text><line style="stroke:#181818;stroke-width:0.5;" x1="521.5" x2="683.5" y1="554" y2="554"/><rect fill="none" height="6" style="stroke:#C82930;stroke-width:1.0;" width="6" x="528.5" y="565.3047"/><text fill="#000000" font-family="sans-serif" font-size="14" lengthAdjust="spacing" textLength="76" x="540.5" y="572.5332">String name</text><rect fill="none" height="6" style="stroke:#C82930;stroke-width:1.0;" width="6" x="528.5" y="582.9141"/><text fill="#000000" font-family="sans-serif" font-size="14" lengthAdjust="spacing" textLength="105" x="540.5" y="590.1426">boolean isEating</text><line style="stroke:#181818;stroke-width:0.5;" x1="521.5" x2="683.5" y1="597.2188" y2="597.2188"/><ellipse cx="531.5" cy="611.5234" fill="#84BE84" rx="3" ry="3" style="stroke:#038048;stroke-width:1.0;"/><text fill="#000000" font-family="sans-serif" font-size="14" lengthAdjust="spacing" textLength="107" x="540.5" y="615.752">Pet(String name)</text><ellipse cx="531.5" cy="629.1328" fill="#84BE84" rx="3" ry="3" style="stroke:#038048;stroke-width:1.0;"/><text fill="#000000" font-family="sans-serif" font-size="14" lengthAdjust="spacing" textLength="93" x="540.5" y="633.3613">void eatFood()</text><ellipse cx="531.5" cy="646.7422" fill="#84BE84" rx="3" ry="3" style="stroke:#038048;stroke-width:1.0;"/><text fill="#000000" font-family="sans-serif" font-size="14" lengthAdjust="spacing" textLength="115" x="540.5" y="650.9707">boolean isEating()</text><ellipse cx="531.5" cy="664.3516" fill="#84BE84" rx="3" ry="3" style="stroke:#038048;stroke-width:1.0;"/><text fill="#000000" font-family="sans-serif" font-size="14" lengthAdjust="spacing" textLength="107" x="540.5" y="668.5801">String getName()</text><ellipse cx="531.5" cy="681.9609" fill="#84BE84" rx="3" ry="3" style="stroke:#038048;stroke-width:1.0;"/><text fill="#000000" font-family="sans-serif" font-size="14" font-style="italic" lengthAdjust="spacing" textLength="138" x="540.5" y="686.1895">void doSpecialAbility()</text></g><!--class Cat--><g id="elem_Cat"><rect codeLine="12" fill="#F1F1F1" height="83.2188" id="Cat" rx="2.5" ry="2.5" style="stroke:#181818;stroke-width:0.5;" width="165" x="7" y="326"/><ellipse cx="74.25" cy="342" fill="#ADD1B2" rx="11" ry="11" style="stroke:#181818;stroke-width:1.0;"/><path d="M77.0156,337.875 Q77.1719,337.6563 77.3594,337.5469 Q77.5469,337.4375 77.7656,337.4375 Q78.1406,337.4375 78.375,337.7031 Q78.6094,337.9531 78.6094,338.5625 L78.6094,340.0156 Q78.6094,340.625 78.375,340.8906 Q78.1406,341.1563 77.7656,341.1563 Q77.4219,341.1563 77.2188,340.9531 Q77.0156,340.7656 76.9063,340.25 Q76.8594,339.8906 76.6719,339.7031 Q76.3438,339.3281 75.7344,339.1094 Q75.125,338.8906 74.5,338.8906 Q73.7344,338.8906 73.0938,339.2188 Q72.4688,339.5469 71.9688,340.2969 Q71.4844,341.0469 71.4844,342.0781 L71.4844,343.1719 Q71.4844,344.4063 72.375,345.2344 Q73.2656,346.0469 74.8594,346.0469 Q75.7969,346.0469 76.4531,345.7969 Q76.8438,345.6406 77.2656,345.2031 Q77.5313,344.9375 77.6719,344.8594 Q77.8281,344.7813 78.0313,344.7813 Q78.3594,344.7813 78.6094,345.0469 Q78.875,345.2969 78.875,345.6406 Q78.875,345.9844 78.5313,346.3906 Q78.0313,346.9688 77.2344,347.2969 Q76.1563,347.75 74.8594,347.75 Q73.3438,347.75 72.1406,347.125 Q71.1563,346.625 70.4688,345.5625 Q69.7813,344.4844 69.7813,343.2031 L69.7813,342.0469 Q69.7813,340.7188 70.3906,339.5781 Q71.0156,338.4219 72.1094,337.8125 Q73.2031,337.1875 74.4375,337.1875 Q75.1719,337.1875 75.8125,337.3594 Q76.4688,337.5156 77.0156,337.875 Z " fill="#000000"/><text fill="#000000" font-family="sans-serif" font-size="14" lengthAdjust="spacing" textLength="22" x="94.75" y="347.7285">Cat</text><line style="stroke:#181818;stroke-width:0.5;" x1="8" x2="171" y1="358" y2="358"/><line style="stroke:#181818;stroke-width:0.5;" x1="8" x2="171" y1="366" y2="366"/><ellipse cx="18" cy="380.3047" fill="#84BE84" rx="3" ry="3" style="stroke:#038048;stroke-width:1.0;"/><text fill="#000000" font-family="sans-serif" font-size="14" lengthAdjust="spacing" textLength="108" x="27" y="384.5332">Cat(String name)</text><ellipse cx="18" cy="397.9141" fill="#84BE84" rx="3" ry="3" style="stroke:#038048;stroke-width:1.0;"/><text fill="#000000" font-family="sans-serif" font-size="14" lengthAdjust="spacing" textLength="139" x="27" y="402.1426">void doSpecialAbility()</text></g><!--class Dog--><g id="elem_Dog"><rect codeLine="17" fill="#F1F1F1" height="118.4375" id="Dog" rx="2.5" ry="2.5" style="stroke:#181818;stroke-width:0.5;" width="239" x="207" y="308.5"/><ellipse cx="309.25" cy="324.5" fill="#ADD1B2" rx="11" ry="11" style="stroke:#181818;stroke-width:1.0;"/><path d="M312.0156,320.375 Q312.1719,320.1563 312.3594,320.0469 Q312.5469,319.9375 312.7656,319.9375 Q313.1406,319.9375 313.375,320.2031 Q313.6094,320.4531 313.6094,321.0625 L313.6094,322.5156 Q313.6094,323.125 313.375,323.3906 Q313.1406,323.6563 312.7656,323.6563 Q312.4219,323.6563 312.2188,323.4531 Q312.0156,323.2656 311.9063,322.75 Q311.8594,322.3906 311.6719,322.2031 Q311.3438,321.8281 310.7344,321.6094 Q310.125,321.3906 309.5,321.3906 Q308.7344,321.3906 308.0938,321.7188 Q307.4688,322.0469 306.9688,322.7969 Q306.4844,323.5469 306.4844,324.5781 L306.4844,325.6719 Q306.4844,326.9063 307.375,327.7344 Q308.2656,328.5469 309.8594,328.5469 Q310.7969,328.5469 311.4531,328.2969 Q311.8438,328.1406 312.2656,327.7031 Q312.5313,327.4375 312.6719,327.3594 Q312.8281,327.2813 313.0313,327.2813 Q313.3594,327.2813 313.6094,327.5469 Q313.875,327.7969 313.875,328.1406 Q313.875,328.4844 313.5313,328.8906 Q313.0313,329.4688 312.2344,329.7969 Q311.1563,330.25 309.8594,330.25 Q308.3438,330.25 307.1406,329.625 Q306.1563,329.125 305.4688,328.0625 Q304.7813,326.9844 304.7813,325.7031 L304.7813,324.5469 Q304.7813,323.2188 305.3906,322.0781 Q306.0156,320.9219 307.1094,320.3125 Q308.2031,319.6875 309.4375,319.6875 Q310.1719,319.6875 310.8125,319.8594 Q311.4688,320.0156 312.0156,320.375 Z " fill="#000000"/><text fill="#000000" font-family="sans-serif" font-size="14" lengthAdjust="spacing" textLength="26" x="329.75" y="330.2285">Dog</text><line style="stroke:#181818;stroke-width:0.5;" x1="208" x2="445" y1="340.5" y2="340.5"/><ellipse cx="218" cy="354.8047" fill="none" rx="3" ry="3" style="stroke:#038048;stroke-width:1.0;"/><text fill="#000000" font-family="sans-serif" font-size="14" lengthAdjust="spacing" textLength="113" x="227" y="359.0332">boolean goodDog</text><line style="stroke:#181818;stroke-width:0.5;" x1="208" x2="445" y1="366.1094" y2="366.1094"/><ellipse cx="218" cy="380.4141" fill="#84BE84" rx="3" ry="3" style="stroke:#038048;stroke-width:1.0;"/><text fill="#000000" font-family="sans-serif" font-size="14" lengthAdjust="spacing" textLength="112" x="227" y="384.6426">Dog(String name)</text><ellipse cx="218" cy="398.0234" fill="#84BE84" rx="3" ry="3" style="stroke:#038048;stroke-width:1.0;"/><text fill="#000000" font-family="sans-serif" font-size="14" lengthAdjust="spacing" textLength="139" x="227" y="402.252">void doSpecialAbility()</text><rect fill="#F24D5C" height="6" style="stroke:#C82930;stroke-width:1.0;" width="6" x="215" y="412.6328"/><text fill="#000000" font-family="sans-serif" font-size="14" lengthAdjust="spacing" textLength="213" x="227" y="419.8613">boolean startsWithVowel(String s)</text></g><!--class Fish--><g id="elem_Fish"><rect codeLine="24" fill="#F1F1F1" height="100.8281" id="Fish" rx="2.5" ry="2.5" style="stroke:#181818;stroke-width:0.5;" width="243" x="481" y="317"/><ellipse cx="584.75" cy="333" fill="#ADD1B2" rx="11" ry="11" style="stroke:#181818;stroke-width:1.0;"/><path d="M587.5156,328.875 Q587.6719,328.6563 587.8594,328.5469 Q588.0469,328.4375 588.2656,328.4375 Q588.6406,328.4375 588.875,328.7031 Q589.1094,328.9531 589.1094,329.5625 L589.1094,331.0156 Q589.1094,331.625 588.875,331.8906 Q588.6406,332.1563 588.2656,332.1563 Q587.9219,332.1563 587.7188,331.9531 Q587.5156,331.7656 587.4063,331.25 Q587.3594,330.8906 587.1719,330.7031 Q586.8438,330.3281 586.2344,330.1094 Q585.625,329.8906 585,329.8906 Q584.2344,329.8906 583.5938,330.2188 Q582.9688,330.5469 582.4688,331.2969 Q581.9844,332.0469 581.9844,333.0781 L581.9844,334.1719 Q581.9844,335.4063 582.875,336.2344 Q583.7656,337.0469 585.3594,337.0469 Q586.2969,337.0469 586.9531,336.7969 Q587.3438,336.6406 587.7656,336.2031 Q588.0313,335.9375 588.1719,335.8594 Q588.3281,335.7813 588.5313,335.7813 Q588.8594,335.7813 589.1094,336.0469 Q589.375,336.2969 589.375,336.6406 Q589.375,336.9844 589.0313,337.3906 Q588.5313,337.9688 587.7344,338.2969 Q586.6563,338.75 585.3594,338.75 Q583.8438,338.75 582.6406,338.125 Q581.6563,337.625 580.9688,336.5625 Q580.2813,335.4844 580.2813,334.2031 L580.2813,333.0469 Q580.2813,331.7188 580.8906,330.5781 Q581.5156,329.4219 582.6094,328.8125 Q583.7031,328.1875 584.9375,328.1875 Q585.6719,328.1875 586.3125,328.3594 Q586.9688,328.5156 587.5156,328.875 Z " fill="#000000"/><text fill="#000000" font-family="sans-serif" font-size="14" lengthAdjust="spacing" textLength="27" x="605.25" y="338.7285">Fish</text><line style="stroke:#181818;stroke-width:0.5;" x1="482" x2="723" y1="349" y2="349"/><rect fill="none" height="6" style="stroke:#C82930;stroke-width:1.0;" width="6" x="489" y="360.3047"/><text fill="#000000" font-family="sans-serif" font-size="14" lengthAdjust="spacing" textLength="96" x="501" y="367.5332">int numWiggles</text><line style="stroke:#181818;stroke-width:0.5;" x1="482" x2="723" y1="374.6094" y2="374.6094"/><ellipse cx="492" cy="388.9141" fill="#84BE84" rx="3" ry="3" style="stroke:#038048;stroke-width:1.0;"/><text fill="#000000" font-family="sans-serif" font-size="14" lengthAdjust="spacing" textLength="217" x="501" y="393.1426">Fish(String name, int numWiggles)</text><ellipse cx="492" cy="406.5234" fill="#84BE84" rx="3" ry="3" style="stroke:#038048;stroke-width:1.0;"/><text fill="#000000" font-family="sans-serif" font-size="14" lengthAdjust="spacing" textLength="139" x="501" y="410.752">void doSpecialAbility()</text></g><!--class Zookeeper--><g id="elem_Zookeeper"><rect codeLine="30" fill="#F1F1F1" height="118.4375" id="Zookeeper" rx="2.5" ry="2.5" style="stroke:#181818;stroke-width:0.5;" width="212" x="830.5" y="308.5"/><ellipse cx="898.25" cy="324.5" fill="#ADD1B2" rx="11" ry="11" style="stroke:#181818;stroke-width:1.0;"/><path d="M901.0156,320.375 Q901.1719,320.1563 901.3594,320.0469 Q901.5469,319.9375 901.7656,319.9375 Q902.1406,319.9375 902.375,320.2031 Q902.6094,320.4531 902.6094,321.0625 L902.6094,322.5156 Q902.6094,323.125 902.375,323.3906 Q902.1406,323.6563 901.7656,323.6563 Q901.4219,323.6563 901.2188,323.4531 Q901.0156,323.2656 900.9063,322.75 Q900.8594,322.3906 900.6719,322.2031 Q900.3438,321.8281 899.7344,321.6094 Q899.125,321.3906 898.5,321.3906 Q897.7344,321.3906 897.0938,321.7188 Q896.4688,322.0469 895.9688,322.7969 Q895.4844,323.5469 895.4844,324.5781 L895.4844,325.6719 Q895.4844,326.9063 896.375,327.7344 Q897.2656,328.5469 898.8594,328.5469 Q899.7969,328.5469 900.4531,328.2969 Q900.8438,328.1406 901.2656,327.7031 Q901.5313,327.4375 901.6719,327.3594 Q901.8281,327.2813 902.0313,327.2813 Q902.3594,327.2813 902.6094,327.5469 Q902.875,327.7969 902.875,328.1406 Q902.875,328.4844 902.5313,328.8906 Q902.0313,329.4688 901.2344,329.7969 Q900.1563,330.25 898.8594,330.25 Q897.3438,330.25 896.1406,329.625 Q895.1563,329.125 894.4688,328.0625 Q893.7813,326.9844 893.7813,325.7031 L893.7813,324.5469 Q893.7813,323.2188 894.3906,322.0781 Q895.0156,320.9219 896.1094,320.3125 Q897.2031,319.6875 898.4375,319.6875 Q899.1719,319.6875 899.8125,319.8594 Q900.4688,320.0156 901.0156,320.375 Z " fill="#000000"/><text fill="#000000" font-family="sans-serif" font-size="14" lengthAdjust="spacing" textLength="68" x="918.75" y="330.2285">Zookeeper</text><line style="stroke:#181818;stroke-width:0.5;" x1="831.5" x2="1041.5" y1="340.5" y2="340.5"/><rect fill="none" height="6" style="stroke:#C82930;stroke-width:1.0;" width="6" x="838.5" y="351.8047"/><text fill="#000000" font-family="sans-serif" font-size="14" lengthAdjust="spacing" textLength="76" x="850.5" y="359.0332">String name</text><line style="stroke:#181818;stroke-width:0.5;" x1="831.5" x2="1041.5" y1="366.1094" y2="366.1094"/><ellipse cx="841.5" cy="380.4141" fill="#84BE84" rx="3" ry="3" style="stroke:#038048;stroke-width:1.0;"/><text fill="#000000" font-family="sans-serif" font-size="14" lengthAdjust="spacing" textLength="154" x="850.5" y="384.6426">Zookeeper(String name)</text><ellipse cx="841.5" cy="398.0234" fill="#84BE84" rx="3" ry="3" style="stroke:#038048;stroke-width:1.0;"/><text fill="#000000" font-family="sans-serif" font-size="14" lengthAdjust="spacing" textLength="161" x="850.5" y="402.252">void feedOnePet(Pet pet)</text><ellipse cx="841.5" cy="415.6328" fill="#84BE84" rx="3" ry="3" style="stroke:#038048;stroke-width:1.0;"/><text fill="#000000" font-family="sans-serif" font-size="14" lengthAdjust="spacing" textLength="186" x="850.5" y="419.8613">void feedPets(List&lt;Pet&gt; pets)</text></g><!--class PetMain--><g id="elem_PetMain"><rect codeLine="37" fill="#F1F1F1" height="206.4844" id="PetMain" rx="2.5" ry="2.5" style="stroke:#181818;stroke-width:0.5;" width="278" x="699.5" y="7"/><ellipse cx="808.75" cy="23" fill="#ADD1B2" rx="11" ry="11" style="stroke:#181818;stroke-width:1.0;"/><path d="M811.5156,18.875 Q811.6719,18.6563 811.8594,18.5469 Q812.0469,18.4375 812.2656,18.4375 Q812.6406,18.4375 812.875,18.7031 Q813.1094,18.9531 813.1094,19.5625 L813.1094,21.0156 Q813.1094,21.625 812.875,21.8906 Q812.6406,22.1563 812.2656,22.1563 Q811.9219,22.1563 811.7188,21.9531 Q811.5156,21.7656 811.4063,21.25 Q811.3594,20.8906 811.1719,20.7031 Q810.8438,20.3281 810.2344,20.1094 Q809.625,19.8906 809,19.8906 Q808.2344,19.8906 807.5938,20.2188 Q806.9688,20.5469 806.4688,21.2969 Q805.9844,22.0469 805.9844,23.0781 L805.9844,24.1719 Q805.9844,25.4063 806.875,26.2344 Q807.7656,27.0469 809.3594,27.0469 Q810.2969,27.0469 810.9531,26.7969 Q811.3438,26.6406 811.7656,26.2031 Q812.0313,25.9375 812.1719,25.8594 Q812.3281,25.7813 812.5313,25.7813 Q812.8594,25.7813 813.1094,26.0469 Q813.375,26.2969 813.375,26.6406 Q813.375,26.9844 813.0313,27.3906 Q812.5313,27.9688 811.7344,28.2969 Q810.6563,28.75 809.3594,28.75 Q807.8438,28.75 806.6406,28.125 Q805.6563,27.625 804.9688,26.5625 Q804.2813,25.4844 804.2813,24.2031 L804.2813,23.0469 Q804.2813,21.7188 804.8906,20.5781 Q805.5156,19.4219 806.6094,18.8125 Q807.7031,18.1875 808.9375,18.1875 Q809.6719,18.1875 810.3125,18.3594 Q810.9688,18.5156 811.5156,18.875 Z " fill="#000000"/><text fill="#000000" font-family="sans-serif" font-size="14" lengthAdjust="spacing" textLength="51" x="829.25" y="28.7285">PetMain</text><line style="stroke:#181818;stroke-width:0.5;" x1="700.5" x2="976.5" y1="39" y2="39"/><rect fill="none" height="6" style="stroke:#C82930;stroke-width:1.0;" width="6" x="707.5" y="50.3047"/><text fill="#000000" font-family="sans-serif" font-size="14" lengthAdjust="spacing" textLength="90" x="719.5" y="57.5332">List&lt;Pet&gt; pets</text><rect fill="none" height="6" style="stroke:#C82930;stroke-width:1.0;" width="6" x="707.5" y="67.9141"/><text fill="#000000" font-family="sans-serif" font-size="14" lengthAdjust="spacing" textLength="138" x="719.5" y="75.1426">Zookeeper zookeeper</text><line style="stroke:#181818;stroke-width:0.5;" x1="700.5" x2="976.5" y1="82.2188" y2="82.2188"/><ellipse cx="710.5" cy="96.5234" fill="#84BE84" rx="3" ry="3" style="stroke:#038048;stroke-width:1.0;"/><text fill="#000000" font-family="sans-serif" font-size="14" lengthAdjust="spacing" text-decoration="underline" textLength="147" x="719.5" y="100.752">void main(String[] args)</text><ellipse cx="710.5" cy="114.1328" fill="#84BE84" rx="3" ry="3" style="stroke:#038048;stroke-width:1.0;"/><text fill="#000000" font-family="sans-serif" font-size="14" lengthAdjust="spacing" textLength="61" x="719.5" y="118.3613">PetMain()</text><ellipse cx="710.5" cy="131.7422" fill="#84BE84" rx="3" ry="3" style="stroke:#038048;stroke-width:1.0;"/><text fill="#000000" font-family="sans-serif" font-size="14" lengthAdjust="spacing" textLength="128" x="719.5" y="135.9707">List&lt;Pet&gt; loadPets()</text><rect fill="#F24D5C" height="6" style="stroke:#C82930;stroke-width:1.0;" width="6" x="707.5" y="146.3516"/><text fill="#000000" font-family="sans-serif" font-size="14" lengthAdjust="spacing" textLength="252" x="719.5" y="153.5801">List&lt;Pet&gt; loadPetsFromFile(Scanner in)</text><ellipse cx="710.5" cy="166.9609" fill="#84BE84" rx="3" ry="3" style="stroke:#038048;stroke-width:1.0;"/><text fill="#000000" font-family="sans-serif" font-size="14" lengthAdjust="spacing" textLength="96" x="719.5" y="171.1895">void feedPets()</text><ellipse cx="710.5" cy="184.5703" fill="#84BE84" rx="3" ry="3" style="stroke:#038048;stroke-width:1.0;"/><text fill="#000000" font-family="sans-serif" font-size="14" lengthAdjust="spacing" textLength="143" x="719.5" y="188.7988">void countPetsEating()</text><rect fill="#F24D5C" height="6" style="stroke:#C82930;stroke-width:1.0;" width="6" x="707.5" y="199.1797"/><text fill="#000000" font-family="sans-serif" font-size="14" lengthAdjust="spacing" textLength="187" x="719.5" y="206.4082">void showPetSpecialAbilities()</text></g><!--link Cat to Pet--><g id="link_Cat_Pet"><path codeLine="80" d="M125.81,409.47 C143.56,427.54 166.12,447.85 189.5,462 C295.27,526.01 416.005,562.7142 502.655,584.1142 " fill="none" id="Cat-to-Pet" style="stroke:#181818;stroke-width:1.0;"/><polygon fill="none" points="520.13,588.43,504.0936,578.2892,501.2165,589.9392,520.13,588.43" style="stroke:#181818;stroke-width:1.0;"/></g><!--link Dog to Pet--><g id="link_Dog_Pet"><path codeLine="81" d="M394.02,426.72 C432.16,459.61 466.4881,489.2154 506.7881,523.9654 " fill="none" id="Dog-to-Pet" style="stroke:#181818;stroke-width:1.0;"/><polygon fill="none" points="520.42,535.72,510.7063,519.4214,502.8699,528.5094,520.42,535.72" style="stroke:#181818;stroke-width:1.0;"/></g><!--link Fish to Pet--><g id="link_Fish_Pet"><path codeLine="82" d="M602.5,418.1 C602.5,448.07 602.5,469.07 602.5,503.81 " fill="none" id="Fish-to-Pet" style="stroke:#181818;stroke-width:1.0;"/><polygon fill="none" points="602.5,521.81,608.5,503.81,596.5,503.81,602.5,521.81" style="stroke:#181818;stroke-width:1.0;"/></g><!--link PetMain to Zookeeper--><g id="link_PetMain_Zookeeper"><path codeLine="84" d="M877.65,213.08 C890.08,245.47 901.2311,274.548 912.0411,302.728 " fill="none" id="PetMain-to-Zookeeper" style="stroke:#181818;stroke-width:1.0;"/><polygon fill="#181818" points="914.19,308.33,914.7012,298.4944,912.3992,303.6617,907.2319,301.3597,914.19,308.33" style="stroke:#181818;stroke-width:1.0;"/></g><!--link PetMain to Pet--><g id="link_PetMain_Pet"><path codeLine="85" d="M824,213.35 C810.48,286.28 785.55,384.68 741.5,462 C726.51,488.31 709.8225,509.1184 688.8225,530.8184 " fill="none" id="PetMain-to-Pet" style="stroke:#181818;stroke-width:1.0;"/><polygon fill="#181818" points="684.65,535.13,693.7832,531.4443,688.1271,531.537,688.0344,525.8809,684.65,535.13" style="stroke:#181818;stroke-width:1.0;"/></g><!--link Zookeeper to Pet--><g id="link_Zookeeper_Pet"><path codeLine="86" d="M854.79,426.72 C803.04,463.6 741.2266,507.6485 689.4066,544.5685 " fill="none" id="Zookeeper-to-Pet" style="stroke:#181818;stroke-width:1.0;"/><polygon fill="#181818" points="684.52,548.05,694.1709,546.0854,688.5922,545.1487,689.5289,539.57,684.52,548.05" style="stroke:#181818;stroke-width:1.0;"/></g><!--reverse link PetAuditRecord to ActivityType--><g id="link_PetAuditRecord_ActivityType"><path codeLine="87" d="M1585.5,478.22 C1585.5,514.25 1585.5,537.53 1585.5,565.99 " fill="none" id="PetAuditRecord-backto-ActivityType" style="stroke:#181818;stroke-width:1.0;"/><ellipse cx="1585.5" cy="470.22" fill="#FFFFFF" rx="8" ry="8" style="stroke:#181818;stroke-width:1.0;"/><line style="stroke:#181818;stroke-width:1.0;" x1="1585.5" x2="1585.5" y1="478.22" y2="462.22"/><line style="stroke:#181818;stroke-width:1.0;" x1="1577.5" x2="1593.5" y1="470.22" y2="470.22"/></g><!--link PetAuditSystem to PetAuditRecord--><g id="link_PetAuditSystem_PetAuditRecord"><path codeLine="88" d="M1634.67,160.57 C1627.06,192.42 1618.333,228.974 1609.253,267.014 " fill="none" id="PetAuditSystem-to-PetAuditRecord" style="stroke:#181818;stroke-width:1.0;"/><polygon fill="#181818" points="1607.86,272.85,1613.8403,265.0246,1609.0209,267.9866,1606.0589,263.1672,1607.86,272.85" style="stroke:#181818;stroke-width:1.0;"/></g><!--SRC=[ZLJRZjem47qcN-778CWVL4Xe2T9AsnOjg5krwiEGp0Ph4pko1oZTxhzt72SaZjXgNnBxpErupjYmjsGW8v6LOAtO88dNQ9A8BHcf2g6WGhVTQrqYA25j2iI6Q39pll70RUgmavQvGA2rrddS8ED8ZxPn1T8N3lNOAxHStdoQN6zhp2IKoxqi9LtOwosAFCyxQ7ZEtE8sYVz5htJXepjo1TDbq47y-t32GMCiWI7x9EdmJP-nx5BOGTMrj0VVNAb8g6Fr98kYHEigEDkmx7payx5p_T3w1R56SqF3MM-zVRvdnFohGgUgcu8QARGnQEC7QUaJhnREFZmSOvz1Abyuz798p-nFjseavxQHp5h1AqxGSllvIu0f_B7Rr7v8-jIb1izf6fRiyBNHrLgM66ypK8ehItNZG3sKwQCYX_LpcdYBFUWp6uA-IxI-ypLaBr2WmD-4Ha7fEd1joVAOIth4J9lSuRqcjH_y1bfc94-ivEvIeu31fh4-w0pA5H3kP8M2-CCzgsgspKOLuZ3t_Ft4qoQwluER_Xeo7eInTRXlNK9IxBFhUCL1Rj8RC1Rs9Nh0MT-YIJH17ksma6lFEarN_4k_fuztzzkqzGsxkRrOmYhivZFBxATyq1Jl68zSF3qlAsc3ZMiyaieqlsbGFstrlQP7Sv8PXaIErlcqkdPoSFIPqpM5tyaIZ-Bdu-01RKzkpGFi6kgU2HRyFf-FHCdRHNCAdbFtOYR9tuNhJ-GUmEkcUPUkkwYxoKcowAzjW3gt_a9toAY7ioISx6WaO1is28d-0G00]--></g></svg>